<?xml version="1.0" standalone="no"?>
<!DOCTYPE svg PUBLIC "-//W3C//DTD SVG 20010904//EN"
 "http://www.w3.org/TR/2001/REC-SVG-20010904/DTD/svg10.dtd">
<svg version="1.0" xmlns="http://www.w3.org/2000/svg"
 width="1024.000000pt" height="878.000000pt" viewBox="0 0 1024.000000 878.000000"
 preserveAspectRatio="xMidYMid meet">

<g transform="translate(0.000000,878.000000) scale(0.100000,-0.100000)"
fill="#002255" stroke="none">
<path d="M4720 8744 c-362 -24 -555 -47 -800 -95 -772 -150 -1533 -477 -2120
-910 -200 -147 -343 -271 -525 -453 -709 -711 -1093 -1458 -1215 -2366 -30
-221 -38 -682 -16 -910 45 -475 169 -897 401 -1375 235 -483 551 -889 1025
-1318 676 -612 1586 -1038 2578 -1207 339 -58 416 -64 927 -64 448 -1 491 1
650 22 201 27 465 78 698 134 l167 40 0 1098 0 1097 -154 -68 c-353 -157 -656
-232 -1046 -260 -741 -52 -1513 173 -2045 595 -386 307 -707 781 -815 1206
-80 313 -78 616 5 945 101 401 290 723 597 1021 254 246 541 434 852 559 244
98 491 164 761 205 180 27 530 38 711 21 352 -32 695 -120 989 -253 61 -27
118 -52 128 -55 16 -5 17 51 17 1090 l0 1095 -32 11 c-244 77 -655 149 -1023
181 -126 11 -621 21 -715 14z"/>
<path d="M6510 5290 l0 -760 1028 1 1027 0 810 740 c446 407 819 749 830 759
19 20 6 20 -1838 20 l-1857 0 0 -760z"/>
<path fill="#ff0000" d="M6510 3475 l0 -765 1851 0 c1252 0 1850 3 1847 10 -2 6 -372 350
-823 765 l-820 754 -1027 0 -1028 1 0 -765z"/>
</g>
</svg>
